<svg width="54" height="36" viewBox="0 0 54 36" fill="none" xmlns="http://www.w3.org/2000/svg">
<path d="M45.218 33L38.622 22.086C38.146 22.5847 37.6473 23.0947 37.126 23.616C36.6273 24.1373 36.106 24.6587 35.562 25.18V33H32.604V9.88H35.562V21.882C37.6927 19.7287 39.472 17.6887 40.9 15.762C42.328 13.8353 43.5407 11.8747 44.538 9.88H47.734C46.714 11.8747 45.6487 13.688 44.538 15.32C43.45 16.9293 42.2033 18.5387 40.798 20.148L48.822 33H45.218Z" fill="white"/>
<path d="M29.1239 14.2014H23.2396V13.1572H29.1239V14.2014ZM29.1239 14.8823H23.2396V15.9285H29.1239V14.8823ZM29.1203 10.1459H23.245V12.4463H29.1203V10.1459ZM31 7.67264V32.3294C30.9991 32.6989 30.737 33 30.4146 33H21.9508C21.6274 33 21.3662 32.6989 21.3662 32.3284V7.67264C21.3662 7.30217 21.6274 7 21.9508 7H30.4146C30.7379 7 31 7.30217 31 7.67264ZM29.83 8.34217H22.5344V31.6568H29.83V8.34217ZM29.1239 16.6084H23.2396V17.6515H29.1239V16.6084ZM28.1664 24.3882C28.1664 25.5906 27.3207 26.5603 26.2777 26.5603C25.2329 26.5603 24.3871 25.5896 24.3871 24.3882C24.3871 23.1899 25.2338 22.2171 26.2777 22.2171C27.3207 22.2171 28.1664 23.1909 28.1664 24.3882ZM27.4846 24.3882C27.4846 23.6234 26.9442 23.0005 26.2768 23.0005C25.6085 23.0005 25.068 23.6224 25.068 24.3882C25.068 25.154 25.6085 25.7748 26.2768 25.7748C26.9442 25.7748 27.4846 25.154 27.4846 24.3882ZM19.7585 11.7302V25.7055C19.7585 26.5479 19.1685 27.2298 18.4426 27.2298H11.8711C11.8711 27.2298 11.4982 30.2805 13.8634 30.2805V31.8068H11.8711H7.88826H5.89593V30.2825C8.17378 30.2825 7.88826 27.2319 7.88826 27.2319H1.31951C0.590854 27.2319 0 26.5499 0 25.7076V11.7302C0 10.8878 0.590854 10.209 1.31951 10.209H18.4417C19.1685 10.209 19.7585 10.8878 19.7585 11.7302ZM11.1073 25.3651C11.1073 24.6427 10.5975 24.0581 9.96885 24.0581C9.33927 24.0581 8.82858 24.6427 8.82858 25.3651C8.82858 26.0874 9.33837 26.6741 9.96885 26.6741C10.5984 26.6741 11.1073 26.0874 11.1073 25.3651ZM18.348 11.8264H1.41228V23.61H18.3471C18.3471 23.61 18.348 11.8264 18.348 11.8264ZM9.98056 24.5465C9.58966 24.5465 9.27352 24.9108 9.27352 25.3588C9.27352 25.8069 9.59056 26.1712 9.98056 26.1712C10.3706 26.1712 10.6876 25.8069 10.6876 25.3588C10.6876 24.9108 10.3715 24.5465 9.98056 24.5465Z" fill="white"/>
</svg>
